<?xml version="1.0" standalone="no"?><!DOCTYPE svg PUBLIC "-//W3C//DTD SVG 1.1//EN" "http://www.w3.org/Graphics/SVG/1.1/DTD/svg11.dtd"><svg t="1698826076876" class="icon" viewBox="0 0 1024 1024" version="1.1" xmlns="http://www.w3.org/2000/svg" p-id="11606" xmlns:xlink="http://www.w3.org/1999/xlink" width="64" height="64"><path d="M591.52 113.83c-19.11 0-36.39 7.85-48.77 20.47-12.39-12.63-29.64-20.47-48.75-20.47-37.72 0-68.28 30.55-68.28 68.25 0 78.04 117.02 146.29 117.02 146.29S659.8 260.12 659.8 182.08c0-37.7-30.58-68.25-68.28-68.25z" fill="#ED5564" p-id="11607"></path><path d="M591.52 113.83c-6.2 0-12.21 0.84-17.93 2.39 29.01 7.88 50.37 34.36 50.37 65.86 0 58.75-66.34 111.96-99.12 134.66 10.76 7.46 17.9 11.63 17.9 11.63S659.8 260.12 659.8 182.08c0-37.7-30.58-68.25-68.28-68.25z" fill="#FFFFFF" opacity=".2" p-id="11608"></path><path d="M714.61 418.23c-207.98 0-176.87 304.95-176.87 304.95s29.74 35.54 177.56 35.54c147.84 0 177.79-35.83 177.79-35.83s29.5-304.66-178.48-304.66z" fill="#CCD1D9" p-id="11609"></path><path d="M900.59 787.33l-1.42-0.42c-24.15-6.54-41.87-12.78-52.53-16.91-37.75-14.52-47.62-24.99-50.11-29.95-0.08-0.18-0.16-0.37-0.24-0.55l-0.34-46.2-161.33 1.87-0.31 44.34c-0.08 0.18-0.13 0.37-0.24 0.55-2.52 4.96-12.34 15.43-50.11 29.98-10.63 4.1-28.38 10.34-52.29 16.83l-1.65 0.47c-21.76 7.3-36.41 27.69-36.41 50.71v64.05H937v-64.05c0-23.02-14.62-43.42-36.41-50.72z" fill="#E6E9ED" p-id="11610"></path><path d="M840.95 608.94c0 81.64-77.83 160.13-125.66 160.13-47.8 0-125.64-78.49-125.64-160.13s56.25-135.48 125.64-135.48c69.41 0 125.66 53.84 125.66 135.48z" fill="#EAC6BB" p-id="11611"></path><path d="M570.28 762.97l-1.73-0.52c-29.27-7.93-50.74-15.49-63.69-20.5-45.78-17.59-57.72-30.32-60.74-36.3-0.1-0.21-0.21-0.45-0.29-0.68l-0.42-55.99-195.59 2.23-0.39 53.76c-0.08 0.24-0.19 0.47-0.29 0.68-3.04 5.99-14.96 18.72-60.74 36.36-12.92 4.96-34.41 12.52-63.42 20.39l-1.99 0.58c-26.38 8.82-44.15 33.55-44.15 61.48v77.65h537.58v-77.65c-0.01-27.94-17.73-52.67-44.14-61.49z" fill="#434A54" p-id="11612"></path><path d="M372.51 794.58h-53.76L291.87 902.1h107.55z" fill="#DA4453" p-id="11613"></path><path d="M725.95 473.88c-11.81 3.68-23.28 7.43-27.54 8.43-9.71 2.23-38.61 31.34-38.61 31.34l43.39 36.41s53.26 34.97 136.5 38.38c-8.09-66.08-55.2-109.81-113.74-114.56z" fill="#F6BB42" p-id="11614"></path><path d="M372.51 794.58h-53.76l-35.85-95.21h125.45z" fill="#ED5564" p-id="11615"></path><path d="M250.58 672.62l-20.34 48.51 53.94 66.57 59.93-46.88zM437.64 672.62l20.35 48.51-53.95 66.57-59.93-46.88z" fill="#656D78" p-id="11616"></path><path d="M497.96 546.67c0 98.96-94.37 194.15-152.33 194.15-57.99 0-152.33-95.18-152.33-194.15 0-98.99 68.2-164.28 152.33-164.28 84.14 0 152.33 65.29 152.33 164.28z" fill="#EAC6BB" p-id="11617"></path><path d="M443.78 364.46c-25.91-23.47-112.75-52.26-199.37 0-43.87 26.46-75.79 143.38-75.79 143.38s85.55 48.48 196.93-3.94c66.65-31.34 65.15-14.93 84.21 13.63 11.29 16.96 48.2 29.14 48.2 29.14s28.72-107.16-54.18-182.21z" fill="#434A54" p-id="11618"></path><path d="M590.6 591.11c105-16.9 159.52-86.47 174.01-107.78-15.15-6.46-31.82-9.87-49.32-9.87-64.18 0-117.13 46.09-124.69 117.65z" fill="#FFCE54" p-id="11619"></path></svg>